<svg xmlns="http://www.w3.org/2000/svg" width="1920" height="1080" viewBox="0 0 1920 1080">
  <title>VEGA BAJA SKATE PARK - overhead layout, CORRE FORREST!, 26 OCT 2026</title>
  <style>
    text { font-family:'Helvetica Neue',Helvetica,Arial,'Liberation Sans',sans-serif; fill:#000 }
    .pad,.coping,.floor,.thin,.joint,.obj,.rail,.shelter,.offpad {
      fill:#fff; stroke:#000; stroke-linejoin:round; stroke-linecap:round }
    .thin,.joint,.floor,.coping,.rail { fill:none }
    .joint   { stroke-dasharray:2.1188 1.3621 }
    .shelter { fill:url(#hatch) }
    .offpad  { fill:none; stroke-dasharray:1.6648 1.2107 }
    .icon    { fill:#fff; stroke:#000; stroke-linejoin:round; stroke-linecap:round }
    .cone    { fill:#000; fill-opacity:0.045; stroke:#000; stroke-width:1.0; stroke-opacity:0.55; stroke-dasharray:8 7 }
    .perf    { fill:none; stroke:#000; stroke-width:1.6; stroke-dasharray:9 7 }
    .key     { fill:#000; stroke:#fff; stroke-width:1.6 }
    .keynum  { font-size:11.5px; font-weight:700; fill:#fff; letter-spacing:0 }
    .dial    { fill:#fff; stroke:#000; stroke-width:1.8 }
    .dialtick{ stroke:#000; stroke-width:1.4 }
    .sunarc  { fill:none; stroke:#000; stroke-width:5; stroke-linecap:round }
    .sunray  { stroke:#000; stroke-width:3 }
    .sunhead,.narrow { fill:#000 }
    .dialnum { font-size:12px; letter-spacing:0.6px }
    .title   { font-size:26px; letter-spacing:4.5px; font-weight:700 }
    .sub     { font-size:15px; letter-spacing:2.6px }
    .tick    { font-size:15px; letter-spacing:1.6px }
    .note    { font-size:12.5px; letter-spacing:1.4px }
    .legend  { font-size:14px; letter-spacing:1.4px }
    .camtag  { font-size:15px; letter-spacing:2.4px; font-weight:700 }
    .camlens { font-size:12.5px; letter-spacing:1.6px }
    .bandtag { font-size:11.5px; letter-spacing:1.2px }
    .grid line { stroke:#000; stroke-width:0.6; opacity:0.22 }
</style>
  <defs>
    <pattern id="hatch" patternUnits="userSpaceOnUse" width="2.0" height="2.0" patternTransform="rotate(45)">
      <rect width="2.0" height="2.0" fill="#fff"/>
      <line x1="0" y1="0" x2="0" y2="2.0" stroke="#000" stroke-width="0.42"/>
    </pattern><g id="cam" stroke-width="4.80">
    <rect x="-17" y="-47" width="34" height="13" rx="2"/>
    <line x1="-17" y1="-41.5" x2="17" y2="-41.5" stroke-width="4.00"/>
    <rect x="-15" y="-34" width="30" height="14" rx="1.5"/>
    <g stroke-width="3.60">
      <line x1="-11" y1="-33" x2="-11" y2="-21"/><line x1="-7.3" y1="-33" x2="-7.3" y2="-21"/>
      <line x1="-3.6" y1="-33" x2="-3.6" y2="-21"/><line x1="0" y1="-33" x2="0" y2="-21"/>
      <line x1="3.6" y1="-33" x2="3.6" y2="-21"/><line x1="7.3" y1="-33" x2="7.3" y2="-21"/>
      <line x1="11" y1="-33" x2="11" y2="-21"/>
    </g>
    <rect x="-13" y="-20" width="26" height="6" rx="1.5"/>
    <rect x="-23" y="-14" width="46" height="45" rx="4" stroke-width="6.00"/>
    <rect x="23" y="-4" width="9" height="23" rx="2"/>
    <path d="M -23,-8 L -40,-8" stroke-width="4.80"/>
    <rect x="-29" y="-11.5" width="7" height="7" rx="1"/>
    <path d="M -40,-14.5 L -56,-17 L -53.5,-3 L -40,-4 Z"/>
    <rect x="-9" y="3" width="15" height="21" rx="2"/>
    <line x1="-6" y1="19" x2="0" y2="19" stroke-width="4.00"/>
    <rect x="-15" y="31" width="30" height="9" rx="1.5"/>
    <rect x="-12" y="40" width="24" height="8" rx="1.5"/></g><g id="person" stroke-width="4.80">
    <ellipse cx="0" cy="0" rx="30" ry="12" stroke-width="5.60"/>
    <ellipse cx="-21" cy="0" rx="2.6" ry="6" stroke-width="4.00"/>
    <ellipse cx="21" cy="0" rx="2.6" ry="6" stroke-width="4.00"/>
    <circle cx="0" cy="-2" r="16" fill="#000" stroke-width="4.80"/>
    <path d="M -15.2,3 A 16,16 0 0 0 15.2,3 Z" fill="#fff" stroke-width="4.80"/>
    <path d="M -5.5,12.5 L 0,19 L 5.5,12.5 Z" fill="#000" stroke-width="4.00"/></g>
  </defs>
  <rect width="1920" height="1080" fill="#fff"/>
  
  <g id="park" transform="translate(290,150) scale(6.60750)">
      <path class="pad" d="M 0.0,22.1
 C 0.0,15.6 1.3,10.7 3.6,8.5
 C 7.2,4.3 15.1,2.0 25.4,1.6
 L 134.5,1.6
 L 146.0,6.6 L 155.8,15.6
 L 202.6,14.8 L 202.6,28.7 L 196.0,29.5 L 196.0,36.1
 L 173.9,36.1 L 173.9,55.8
 L 183.7,59.1 L 183.7,67.3 L 179.6,71.4 L 179.6,79.6
 L 102.5,80.4 L 100.9,68.9
 L 93.5,68.9 L 93.5,57.4 L 100.9,57.4
 L 100.9,39.4
 L 32.8,43.5
 C 21.3,46.3 10.7,44.3 4.6,39.7
 C 1.3,36.1 0.0,29.2 0.0,22.1 Z" stroke-width="0.681"/>
      <path class="coping" d="M 13.9,5.7
 L 49.2,5.7 A 3.3,3.3 0 0 1 52.5,9.0
 L 52.5,30.3 A 3.3,3.3 0 0 1 49.2,33.6
 L 27.9,33.6
 C 26.2,37.1 23.0,38.7 18.9,38.7
 C 13.5,38.7 7.7,35.3 6.1,30.2
 L 5.7,27.9 L 5.7,13.9
 A 8.2,8.2 0 0 1 13.9,5.7 Z" stroke-width="0.5146"/>
      <path class="floor"  d="M 18.4,10.7
 L 44.3,10.7 A 3.3,3.3 0 0 1 47.6,13.9
 L 47.6,25.4 A 3.3,3.3 0 0 1 44.3,28.7
 L 27.2,28.7
 C 25.8,31.8 22.8,33.8 19.0,33.8
 C 14.6,33.8 12.0,30.7 10.8,26.6
 L 10.7,18.4
 A 7.7,7.7 0 0 1 18.4,10.7 Z"  stroke-width="0.3632"/>
      <line class="joint" x1="61.5" y1="2.0" x2="61.5" y2="40.5" stroke-width="0.3027"/>
      <rect class="obj" x="100.0" y="24.5" width="5.0" height="33.0" stroke-width="0.454"/>
      <rect class="obj" x="131.0" y="58.0" width="15.5" height="4.0" stroke-width="0.454"/>
      <line class="thin" x1="131.0" y1="60.0" x2="146.5" y2="60.0" stroke-width="0.3027"/>
      <line class="thin" x1="131.0" y1="58.0" x2="134.41" y2="60.0" stroke-width="0.3027"/>
      <line class="thin" x1="131.0" y1="62.0" x2="134.41" y2="60.0" stroke-width="0.3027"/>
      <rect class="obj" x="127.0" y="65.0" width="21.5" height="5.0" stroke-width="0.454"/>
      <line class="rail" x1="123.75" y1="70.75" x2="151.75" y2="70.75" stroke-width="0.6054"/>
      <line class="obj" x1="123.75" y1="69.55" x2="123.75" y2="71.95" stroke-width="0.3935"/>
      <line class="obj" x1="151.75" y1="69.55" x2="151.75" y2="71.95" stroke-width="0.3935"/>
      <rect class="obj" x="149.5" y="27.0" width="14.5" height="2.5" stroke-width="0.454"/>
      <rect class="obj" x="156.5" y="16.5" width="4.0" height="10.5" stroke-width="0.454"/>
      <rect class="obj" x="164.0" y="28.5" width="6.5" height="27.0" stroke-width="0.454"/>
      <rect class="obj" x="160.5" y="56.5" width="3.5" height="18.0" stroke-width="0.454"/>
      <rect class="obj" x="166.5" y="56.5" width="4.0" height="18.0" stroke-width="0.454"/>
      <rect class="obj" x="171.5" y="59.0" width="8.0" height="11.5" stroke-width="0.454"/>
      <rect class="thin" x="172.65" y="60.15" width="5.7" height="9.2" stroke-width="0.2119"/>
      <rect class="obj" x="184.5" y="17.0" width="17.0" height="10.5" stroke-width="0.454"/>
      <rect class="thin" x="185.65" y="18.15" width="14.7" height="8.2" stroke-width="0.2119"/>
      <rect class="shelter" x="174.0" y="36.0" width="21.5" height="19.0" stroke-width="0.4843"/>
  </g>
  <g id="keys"><circle class="key" cx="481.6" cy="278.8" r="9.5"/><text x="481.6" y="283.2" class="keynum" text-anchor="middle">1</text>
    <circle class="key" cx="1056.5" cy="629.0" r="9.5"/><text x="1056.5" y="633.4" class="keynum" text-anchor="middle">2</text>
    <circle class="key" cx="1089.5" cy="589.4" r="9.5"/><text x="1089.5" y="593.8" class="keynum" text-anchor="middle">3</text>
    <circle class="key" cx="1125.8" cy="546.4" r="9.5"/><text x="1125.8" y="550.8" class="keynum" text-anchor="middle">4</text>
    <circle class="key" cx="1511.1" cy="450.6" r="9.5"/><text x="1511.1" y="455.0" class="keynum" text-anchor="middle">5</text></g>
  <g id="band"><rect class="perf" x="1043.3" y="624.4" width="303.9" height="54.2"/>
    <g class="icon" transform="translate(1096.1,648.9) rotate(18) scale(0.5)"><use href="#person"/></g>
    <text x="1096.1" y="710.6" class="bandtag" text-anchor="middle">GTR</text>
    <g class="icon" transform="translate(1185.3,655.5) rotate(0) scale(0.5)"><use href="#person"/></g>
    <text x="1185.3" y="694.6" class="bandtag" text-anchor="middle">VOX / GTR</text>
    <g class="icon" transform="translate(1241.5,642.3) rotate(-8) scale(0.5)"><use href="#person"/></g>
    <text x="1241.5" y="710.6" class="bandtag" text-anchor="middle">DRUMS</text>
    <g class="icon" transform="translate(1300.9,648.9) rotate(-18) scale(0.5)"><use href="#person"/></g>
    <text x="1300.9" y="694.6" class="bandtag" text-anchor="middle">BASS</text></g>
  <g id="cameras"><path class="cone" d="M 1200.2,847.2 L 1105.0,662.0 L 1295.4,662.0 Z"/>
    <g class="icon" transform="translate(1200.2,870.2) rotate(0.0) scale(0.5)"><use href="#cam"/></g>
    <text x="1200.2" y="912.2" class="camtag" text-anchor="middle">CAM A</text>
    <text x="1200.2" y="930.2" class="camlens" text-anchor="middle">35 MM</text>
    <path class="cone" d="M 1287.0,849.8 L 1140.2,686.9 L 1236.8,636.3 Z"/>
    <g class="icon" transform="translate(1297.6,870.2) rotate(-27.6) scale(0.5)"><use href="#cam"/></g>
    <text x="1297.6" y="912.2" class="camtag" text-anchor="middle">CAM B</text>
    <text x="1297.6" y="930.2" class="camlens" text-anchor="middle">70-200 MM</text>
    <path class="cone" d="M 1102.3,851.1 L 1185.2,614.2 L 1289.0,683.4 Z"/>
    <g class="icon" transform="translate(1089.5,870.2) rotate(33.7) scale(0.5)"><use href="#cam"/></g>
    <text x="1089.5" y="912.2" class="camtag" text-anchor="middle">CAM C</text>
    <text x="1089.5" y="930.2" class="camlens" text-anchor="middle">70-200 MM</text></g>
  <g id="annotation">
    <g transform="translate(290,58)">
    <text x="0" y="0"  class="title">VEGA BAJA SKATE PARK</text>
    <text x="0" y="26" class="sub">OVERHEAD LAYOUT BASE · PAGE UP = 332° (NNW)</text>
    <text x="0" y="50" class="sub">CORRE FORREST! &#183; SHOOT 26 OCT 2026</text>
    <text x="0" y="70" class="note">REV 5 · 04 OCT 2026</text>
    
    </g>
    <g transform="translate(1330,58)">
    <text x="0" y="0" class="sub">CAMERAS</text>
    <text x="0"   y="26" class="legend" font-weight="700">A</text>
    <text x="22"  y="26" class="legend">35 MM</text>
    <text x="128" y="26" class="legend">BAND WIDE / CENTRE</text>
    <text x="0"   y="47" class="legend" font-weight="700">B</text>
    <text x="22"  y="47" class="legend">70-200 MM</text>
    <text x="128" y="47" class="legend">CLOSE / VOCALS</text>
    <text x="0"   y="68" class="legend" font-weight="700">C</text>
    <text x="22"  y="68" class="legend">70-200 MM</text>
    <text x="128" y="68" class="legend">CLOSE / INSTRUMENTS</text>
    </g>
    <g transform="translate(290,742)">
    <text x="0" y="0" class="sub">KEY</text>
    <circle class="key" cx="9.0" cy="23.5" r="9.0"/><text x="9.0" y="27.6" class="keynum" text-anchor="middle">1</text>
    <text x="26" y="28" class="legend">BOWL</text>
    <circle class="key" cx="9.0" cy="46.5" r="9.0"/><text x="9.0" y="50.6" class="keynum" text-anchor="middle">2</text>
    <text x="26" y="51" class="legend">LONG FLAT RAIL, E-W</text>
    <circle class="key" cx="9.0" cy="69.5" r="9.0"/><text x="9.0" y="73.6" class="keynum" text-anchor="middle">3</text>
    <text x="26" y="74" class="legend">BOX / MANNY PAD</text>
    <circle class="key" cx="9.0" cy="92.5" r="9.0"/><text x="9.0" y="96.6" class="keynum" text-anchor="middle">4</text>
    <text x="26" y="97" class="legend">TRIANGULAR LEDGE</text>
    <circle class="key" cx="9.0" cy="115.5" r="9.0"/><text x="9.0" y="119.6" class="keynum" text-anchor="middle">5</text>
    <text x="26" y="120" class="legend">ROOFED SHELTER</text>
    </g>
    <g transform="translate(290.0,962.0)">
    <rect x="0" y="0" width="165.2" height="11" fill="#000"/>
    <rect x="165.2" y="0" width="165.2" height="11" fill="none" stroke="#000" stroke-width="2"/>
    <rect x="330.4" y="0" width="165.2" height="11" fill="#000"/>
    <text x="0.0" y="-12" class="tick" text-anchor="middle">0</text>
    <text x="165.2" y="-12" class="tick" text-anchor="middle">25</text>
    <text x="330.4" y="-12" class="tick" text-anchor="middle">50</text>
    <text x="495.6" y="-12" class="tick" text-anchor="middle">75</text>
    <text x="523.6" y="-12" class="tick">FEET</text>
    <text x="0" y="31" class="note">PAD 202.8 ft &#215; 81.0 ft &#183; SCALE FROM GOOGLE MAPS BAR</text>
    </g>
    <g transform="translate(0,0)">
    <circle class="dial" cx="1505" cy="800" r="70"/>
    <line class="dialtick" x1="1537.9" y1="738.2" x2="1533.6" y2="746.1"/>
    <line class="dialtick" x1="1552.7" y1="748.8" x2="1549.3" y2="752.5"/>
    <line class="dialtick" x1="1564.4" y1="762.9" x2="1560.1" y2="765.6"/>
    <line class="dialtick" x1="1571.9" y1="779.5" x2="1567.2" y2="781.0"/>
    <line class="dialtick" x1="1575.0" y1="797.6" x2="1570.0" y2="797.7"/>
    <line class="dialtick" x1="1573.2" y1="815.7" x2="1568.3" y2="814.6"/>
    <line class="dialtick" x1="1566.8" y1="832.9" x2="1558.9" y2="828.6"/>
    <line class="dialtick" x1="1556.2" y1="847.7" x2="1552.5" y2="844.3"/>
    <line class="dialtick" x1="1542.1" y1="859.4" x2="1539.4" y2="855.1"/>
    <line class="dialtick" x1="1525.5" y1="866.9" x2="1524.0" y2="862.2"/>
    <line class="dialtick" x1="1507.4" y1="870.0" x2="1507.3" y2="865.0"/>
    <line class="dialtick" x1="1489.3" y1="868.2" x2="1490.4" y2="863.3"/>
    <line class="dialtick" x1="1472.1" y1="861.8" x2="1476.4" y2="853.9"/>
    <line class="dialtick" x1="1457.3" y1="851.2" x2="1460.7" y2="847.5"/>
    <line class="dialtick" x1="1445.6" y1="837.1" x2="1449.9" y2="834.4"/>
    <line class="dialtick" x1="1438.1" y1="820.5" x2="1442.8" y2="819.0"/>
    <line class="dialtick" x1="1435.0" y1="802.4" x2="1440.0" y2="802.3"/>
    <line class="dialtick" x1="1436.8" y1="784.3" x2="1441.7" y2="785.4"/>
    <line class="dialtick" x1="1443.2" y1="767.1" x2="1451.1" y2="771.4"/>
    <line class="dialtick" x1="1453.8" y1="752.3" x2="1457.5" y2="755.7"/>
    <line class="dialtick" x1="1467.9" y1="740.6" x2="1470.6" y2="744.9"/>
    <line class="dialtick" x1="1484.5" y1="733.1" x2="1486.0" y2="737.8"/>
    <line class="dialtick" x1="1502.6" y1="730.0" x2="1502.7" y2="735.0"/>
    <line class="dialtick" x1="1520.7" y1="731.8" x2="1519.6" y2="736.7"/>
    <path class="sunarc" d="M 1557.7,846.1 A 70,70 0 0 1 1437.3,782.3"/>
    <line class="sunray" x1="1552.4" y1="841.5" x2="1565.2" y2="852.7"/>
    <text x="1591.6" y="879.7" class="dialnum" text-anchor="middle">RISE 06:23</text>
    <line class="sunray" x1="1444.1" y1="784.0" x2="1427.6" y2="779.7"/>
    <text x="1393.8" y="774.9" class="dialnum" text-anchor="middle">SET 17:56</text>
    <path class="narrow" d="M 1547.3,720.5 L 1546.3,739.3 L 1532.2,731.8 Z"/>
    <text x="1554.8" y="711.4" class="tick" text-anchor="middle">N</text>
    <text x="1505" y="932" class="note" text-anchor="middle">SUN &#183; 26 OCT 2026 &#183; AST</text>
    </g>
  </g>
</svg>
